#include "song.h"

const note motor1_notes[] = {
  Note(NOTE_B5, 341, 340),
  Note(NOTE_G5, 0, 340),
  Note(NOTE_G5, 1, 170),
  Note(NOTE_B5, 0, 170),
  Note(NOTE_B5, 1, 340),
  Note(NOTE_G5, 1, 170),
  Note(NOTE_B4, 0, 340),
  Note(NOTE_E5, 1, 170),
  Note(NOTE_B5, 1, 169),
  Note(NOTE_B5, 1, 170),
  Note(NOTE_B5, 1, 340),
  Note(NOTE_B4, 341, 341),
  Note(NOTE_FF5, 0, 170),
  Note(NOTE_B5, 1, 169),
  Note(NOTE_B5, 1, 340),
  Note(NOTE_FF5, 1, 170),
  Note(NOTE_B4, 1, 340),
  Note(NOTE_D5, 0, 170),
  Note(NOTE_B5, 1, 170),
  Note(NOTE_B5, 0, 170),
  Note(NOTE_B5, 1, 340),
  Note(NOTE_A4, 342, 340),
  Note(NOTE_E5, 1, 169),
  Note(NOTE_A5, 1, 170),
  Note(NOTE_A5, 0, 341),
  Note(NOTE_E5, 0, 170),
  Note(NOTE_A4, 1, 340),
  Note(NOTE_C5, 1, 169),
  Note(NOTE_A5, 1, 170),
  Note(NOTE_A5, 1, 169),
  Note(NOTE_A5, 1, 340),
  Note(NOTE_A4, 342, 340),
  Note(NOTE_E5, 1, 170),
  Note(NOTE_A5, 0, 170),
  Note(NOTE_A5, 1, 340),
  Note(NOTE_E5, 1, 169),
  Note(NOTE_A4, 1, 340),
  Note(NOTE_A4, 1, 170),
  Note(NOTE_A5, 0, 170),
  Note(NOTE_A5, 1, 170),
  Note(NOTE_E5, 0, 171),
  Note(NOTE_G4, 0, 170),
  Note(NOTE_E4, 0, 170),
  Note(NOTE_G3, 171, 1363),
  Note(NOTE_B3, 1, 681),
  Note(NOTE_E4, 1, 169),
  Note(NOTE_E4, 172, 169),
  Note(NOTE_A3, 171, 1363),
  Note(NOTE_B3, 1, 511),
  Note(NOTE_A3, 171, 170),
  Note(NOTE_A3, 171, 170),
  Note(NOTE_D4, 0, 170),
  Note(NOTE_A3, 1, 1363),
  Note(NOTE_E4, 0, 170),
  Note(NOTE_D4, 342, 169),
  Note(NOTE_E4, 1, 340),
  Note(NOTE_E4, 1, 170),
  Note(NOTE_E4, 1, 169),
  Note(NOTE_A3, 1, 1363),
  Note(NOTE_B3, 1, 681),
  Note(NOTE_FF5, 0, 341),
  Note(NOTE_E4, 171, 170),
  Note(NOTE_G3, 0, 1363),
  Note(NOTE_E4, 342, 170),
  Note(NOTE_E4, 0, 170),
  Note(NOTE_G4, 1, 169),
  Note(NOTE_E4, 172, 169),
  Note(NOTE_D4, 172, 340),
  Note(NOTE_B3, 0, 682),
  Note(NOTE_D4, 0, 170),
  Note(NOTE_D4, 1, 169),
  Note(NOTE_D4, 172, 169),
  Note(NOTE_E4, 172, 169),
  Note(NOTE_B3, 512, 170),
  Note(NOTE_E4, 1, 340),
  Note(NOTE_E4, 1, 169),
  Note(NOTE_E4, 1, 170),
  Note(NOTE_C4, 1, 340),
  Note(NOTE_C4, 1, 681),
  Note(NOTE_E4, 171, 170),
  Note(NOTE_E4, 341, 340),
  Note(NOTE_A3, 1, 1363),
  Note(NOTE_B3, 1, 510),
  Note(NOTE_FF4, 172, 340),
  Note(NOTE_B4, 0, 341),
  Note(NOTE_D5, 0, 511),
  Note(NOTE_C5, 1, 169),
  Note(NOTE_B4, 1, 511),
  Note(NOTE_A4, 1, 169),
  Note(NOTE_G4, 1, 1533),
  Note(NOTE_E4, 172, 169),
  Note(NOTE_D4, 342, 170),
  Note(NOTE_E4, 171, 170),
  Note(NOTE_B3, 682, 340),
  Note(NOTE_B4, 1, 340),
  Note(NOTE_A4, 1, 511),
  Note(NOTE_G4, 0, 170),
  Note(NOTE_A4, 1, 510),
  Note(NOTE_B4, 1, 170),
  Note(NOTE_A4, 1, 1022),
  Note(NOTE_B4, 171, 340),
  Note(NOTE_B4, 342, 169),
  Note(NOTE_B4, 683, 340),
  Note(NOTE_B4, 1, 169),
  Note(NOTE_B4, 1, 170),
  Note(NOTE_D5, 1, 169),
  Note(NOTE_B4, 1, 170),
  Note(NOTE_D5, 1, 340),
};
const note motor2_notes[] = {
  Note(NOTE_B4, 681, 340),
  Note(NOTE_B5, 1, 170),
  Note(NOTE_G5, 171, 340),
  Note(NOTE_B5, 1, 170),
  Note(NOTE_E5, 0, 340),
  Note(NOTE_B5, 1, 170),
  Note(NOTE_G5, 171, 170),
  Note(NOTE_B5, 341, 341),
  Note(NOTE_FF5, 0, 341),
  Note(NOTE_B5, 0, 170),
  Note(NOTE_FF5, 171, 340),
  Note(NOTE_B5, 1, 170),
  Note(NOTE_D5, 1, 340),
  Note(NOTE_B5, 0, 170),
  Note(NOTE_FF5, 171, 170),
  Note(NOTE_B5, 342, 340),
  Note(NOTE_E5, 1, 340),
  Note(NOTE_A5, 1, 169),
  Note(NOTE_E5, 171, 341),
  Note(NOTE_A5, 0, 170),
  Note(NOTE_C5, 1, 340),
  Note(NOTE_A5, 1, 169),
  Note(NOTE_E5, 172, 169),
  Note(NOTE_A5, 342, 340),
  Note(NOTE_E5, 1, 340),
  Note(NOTE_A5, 1, 170),
  Note(NOTE_E5, 171, 340),
  Note(NOTE_A5, 1, 169),
  Note(NOTE_C5, 1, 340),
  Note(NOTE_E5, 1, 170),
  Note(NOTE_E5, 171, 170),
  Note(NOTE_A5, 0, 681),
  Note(NOTE_E4, 342, 340),
  Note(NOTE_G4, 1, 170),
  Note(NOTE_E4, 0, 170),
  Note(NOTE_D4, 171, 170),
  Note(NOTE_E4, 1, 681),
  Note(NOTE_E4, 171, 170),
  Note(NOTE_E4, 341, 341),
  Note(NOTE_E4, 341, 170),
  Note(NOTE_E4, 1, 169),
  Note(NOTE_D4, 172, 169),
  Note(NOTE_E4, 1, 511),
  Note(NOTE_E4, 171, 170),
  Note(NOTE_E4, 171, 170),
  Note(NOTE_E4, 171, 340),
  Note(NOTE_E4, 342, 340),
  Note(NOTE_E4, 0, 170),
  Note(NOTE_E4, 1, 170),
  Note(NOTE_E4, 171, 170),
  Note(NOTE_E4, 171, 169),
  Note(NOTE_B3, 342, 170),
  Note(NOTE_E4, 171, 170),
  Note(NOTE_E4, 0, 170),
  Note(NOTE_E4, 1, 170),
  Note(NOTE_E4, 171, 170),
  Note(NOTE_E4, 171, 169),
  Note(NOTE_E4, 1, 170),
  Note(NOTE_E4, 1, 1192),
  Note(NOTE_G4, 171, 170),
  Note(NOTE_E4, 1, 169),
  Note(NOTE_D4, 172, 169),
  Note(NOTE_B3, 1, 340),
  Note(NOTE_E4, 1, 681),
  Note(NOTE_D4, 171, 170),
  Note(NOTE_E4, 171, 170),
  Note(NOTE_E4, 171, 170),
  Note(NOTE_E4, 1, 340),
  Note(NOTE_D4, 0, 682),
  Note(NOTE_E4, 0, 170),
  Note(NOTE_D4, 171, 170),
  Note(NOTE_E4, 171, 170),
  Note(NOTE_FF4, 1, 169),
  Note(NOTE_E4, 512, 170),
  Note(NOTE_A3, 1, 1363),
  Note(NOTE_E4, 341, 170),
  Note(NOTE_E4, 171, 340),
  Note(NOTE_G4, 1, 340),
  Note(NOTE_E4, 172, 169),
  Note(NOTE_D4, 171, 170),
  Note(NOTE_E4, 1, 170),
  Note(NOTE_E4, 171, 170),
  Note(NOTE_E4, 0, 170),
  Note(NOTE_FF4, 1, 510),
  Note(NOTE_B4, 172, 340),
  Note(NOTE_B4, 341, 511),
  Note(NOTE_G4, 171, 511),
  Note(NOTE_E4, 171, 1533),
  Note(NOTE_E4, 342, 170),
  Note(NOTE_E4, 171, 170),
  Note(NOTE_D4, 341, 681),
  Note(NOTE_E4, 1, 340),
  Note(NOTE_E4, 342, 511),
  Note(NOTE_E4, 171, 510),
  Note(NOTE_E4, 172, 1022),
  Note(NOTE_B4, 512, 169),
  Note(NOTE_B4, 342, 340),
  Note(NOTE_D5, 342, 340),
  Note(NOTE_E4, 171, 170),
  Note(NOTE_D4, 171, 170),
};
const note motor3_notes[] = {
  Note(NOTE_E5, 681, 340),
  Note(NOTE_G5, 171, 170),
  Note(NOTE_E5, 342, 170),
  Note(NOTE_B5, 0, 340),
  Note(NOTE_G5, 172, 169),
  Note(NOTE_G5, 172, 340),
  Note(NOTE_D5, 341, 341),
  Note(NOTE_FF5, 171, 169),
  Note(NOTE_D5, 342, 170),
  Note(NOTE_B5, 1, 340),
  Note(NOTE_FF5, 171, 170),
  Note(NOTE_FF5, 171, 340),
  Note(NOTE_C5, 342, 340),
  Note(NOTE_E5, 171, 170),
  Note(NOTE_C5, 341, 170),
  Note(NOTE_A5, 1, 340),
  Note(NOTE_E5, 171, 170),
  Note(NOTE_E5, 171, 340),
  Note(NOTE_C5, 342, 340),
  Note(NOTE_E5, 171, 170),
  Note(NOTE_C5, 342, 169),
  Note(NOTE_A5, 1, 340),
  Note(NOTE_E5, 171, 170),
  Note(NOTE_A4, 171, 170),
  Note(NOTE_E4, 1, 170),
  Note(NOTE_E4, 171, 510),
  Note(NOTE_E4, 342, 170),
  Note(NOTE_E4, 171, 170),
  Note(NOTE_E4, 0, 170),
  Note(NOTE_B3, 683, 169),
  Note(NOTE_D4, 342, 170),
  Note(NOTE_E4, 341, 341),
  Note(NOTE_FF4, 0, 170),
  Note(NOTE_E4, 171, 170),
  Note(NOTE_E4, 1, 169),
  Note(NOTE_D4, 512, 170),
  Note(NOTE_E4, 171, 170),
  Note(NOTE_B3, 171, 170),
  Note(NOTE_E4, 342, 340),
  Note(NOTE_G4, 1, 340),
  Note(NOTE_D4, 171, 170),
  Note(NOTE_E4, 341, 170),
  Note(NOTE_B3, 171, 340),
  Note(NOTE_D4, 172, 169),
  Note(NOTE_D4, 171, 170),
  Note(NOTE_E4, 171, 170),
  Note(NOTE_E4, 171, 170),
  Note(NOTE_D4, 171, 170),
  Note(NOTE_E5, 342, 169),
  Note(NOTE_D5, 1, 170),
  Note(NOTE_B4, 0, 341),
  Note(NOTE_E4, 341, 170),
  Note(NOTE_E4, 171, 170),
  Note(NOTE_E4, 1, 169),
  Note(NOTE_E4, 1, 340),
  Note(NOTE_B3, 683, 170),
  Note(NOTE_E4, 171, 169),
  Note(NOTE_D4, 342, 170),
  Note(NOTE_A3, 1, 1362),
  Note(NOTE_D4, 342, 170),
  Note(NOTE_E4, 171, 511),
  Note(NOTE_C4, 171, 340),
  Note(NOTE_D4, 171, 170),
  Note(NOTE_E4, 1, 340),
  Note(NOTE_E4, 1, 681),
  Note(NOTE_C4, 341, 340),
  Note(NOTE_E4, 342, 170),
  Note(NOTE_E4, 171, 170),
  Note(NOTE_E4, 0, 170),
  Note(NOTE_E4, 171, 170),
  Note(NOTE_D4, 171, 170),
  Note(NOTE_A4, 512, 170),
  Note(NOTE_FF4, 341, 341),
  Note(NOTE_A4, 512, 169),
  Note(NOTE_FF4, 513, 169),
  Note(NOTE_D4, 1535, 170),
  Note(NOTE_E4, 341, 170),
  Note(NOTE_E4, 171, 170),
  Note(NOTE_E4, 171, 681),
  Note(NOTE_G4, 342, 340),
  Note(NOTE_D4, 512, 170),
  Note(NOTE_E4, 512, 170),
  Note(NOTE_A4, 1023, 170),
  Note(NOTE_B4, 512, 170),
  Note(NOTE_B4, 512, 340),
  Note(NOTE_E4, 342, 169),
  Note(NOTE_FF4, 172, 169),
  Note(NOTE_B4, 172, 340),
};